<svg aria-hidden="true" width='32' height='32' viewBox="0 0 32 32" style="position: absolute; width: 0; height: 0; overflow: hidden;" version="1.1" xmlns="http://www.w3.org/2000/svg" xmlns:xlink="http://www.w3.org/1999/xlink">
<defs>
<symbol id="apply" viewBox="0 0 32 32">
<path d="M2 23.5c0 1.933 1.567 3.5 3.5 3.5v0h21c1.933 0 3.5-1.567 3.5-3.5v0-9.625h-28zM6.125 18.75c0-1.036 0.839-1.875 1.875-1.875v0h3c1.036 0 1.875 0.839 1.875 1.875v0 1.25c0 1.036-0.839 1.875-1.875 1.875v0h-3c-1.036 0-1.875-0.839-1.875-1.875v0zM26.5 5h-21c-1.933 0-3.5 1.567-3.5 3.5v0 1.625h28v-1.625c0-1.933-1.567-3.5-3.5-3.5v0z"></path>
</symbol>
<symbol id="home" viewBox="0 0 32 32">
<path d="M16.348 6.33c-0.090-0.086-0.211-0.139-0.346-0.139s-0.256 0.053-0.346 0.139l0-0-11.506 10.992c-0.095 0.091-0.154 0.219-0.154 0.361 0 0 0 0 0 0.001v-0l-0.002 10.316c0 1.105 0.895 2 2 2v0h6.006c0.552 0 1-0.448 1-1v0-8.5c0-0.276 0.224-0.5 0.5-0.5v0h5c0.276 0 0.5 0.224 0.5 0.5v0 8.5c0 0.552 0.448 1 1 1v0h6.004c1.105 0 2-0.895 2-2v0-10.316c0-0 0-0 0-0.001 0-0.142-0.059-0.27-0.154-0.361l-0-0z"></path>
<path d="M30.682 15.259l-4.675-4.473v-6.787c0-0.552-0.448-1-1-1v0h-3c-0.552 0-1 0.448-1 1v0 2l-3.62-3.461c-0.339-0.342-0.843-0.539-1.387-0.539-0.543 0-1.045 0.196-1.384 0.539l-13.294 12.719c-0.389 0.375-0.438 0.992-0.084 1.398 0.184 0.212 0.455 0.345 0.756 0.345 0.269 0 0.513-0.106 0.693-0.279l12.968-12.392c0.090-0.086 0.211-0.139 0.346-0.139s0.256 0.053 0.346 0.139l-0-0 12.97 12.392c0.179 0.172 0.423 0.278 0.692 0.278 0.282 0 0.538-0.117 0.719-0.305l0-0c0.384-0.398 0.352-1.054-0.047-1.436z"></path>
</symbol>
<symbol id="pay" viewBox="0 0 32 32">
<path stroke-linejoin="round" stroke-linecap="round" stroke-miterlimit="4" stroke-width="2" d="M19 3l7 7-7 7M24.929 10h-18.929M13 29l-7-7 7-7M7.125 22h18.875"></path>
</symbol>
<symbol id="arrow-forward" viewBox="0 0 32 32">
<path stroke-linejoin="round" stroke-linecap="round" stroke-miterlimit="4" stroke-width="3" d="M11.5 7l9 9-9 9"></path>
</symbol>
<symbol id="arrow-back" viewBox="0 0 32 32">
<path stroke-linejoin="round" stroke-linecap="round" stroke-miterlimit="4" stroke-width="3" d="M20.5 7l-9 9 9 9"></path>
</symbol>
<symbol id="arrow-down" viewBox="0 0 32 32">
<path stroke-linejoin="round" stroke-linecap="round" stroke-miterlimit="4" stroke-width="3" d="M7 11.5l9 9 9-9"></path>
</symbol>
<symbol id="arrow-up" viewBox="0 0 32 32">
<path stroke-linejoin="round" stroke-linecap="round" stroke-miterlimit="4" stroke-width="3" d="M7 20.5l9-9 9 9"></path>
</symbol>
<symbol id="cog" viewBox="0 0 32 32">
<path d="M18.116 0.035c-0.040 0.020-0.105 0.065-0.14 0.105s-0.383 0.669-0.774 1.4c-0.391 0.729-0.746 1.385-0.791 1.457-0.133 0.21-0.123 0.208-0.821 0.235l-0.618 0.028-0.133-0.065c-0.133-0.065-0.148-0.085-1.042-1.375-0.501-0.719-0.934-1.342-0.966-1.385-0.073-0.098-0.2-0.16-0.331-0.16-0.108 0-2.94 0.941-3.037 1.009-0.145 0.103-0.175 0.223-0.148 0.588 0.060 0.741 0.178 2.234 0.203 2.577l0.030 0.383-0.073 0.143c-0.070 0.138-0.095 0.16-0.586 0.501-0.283 0.195-0.553 0.368-0.601 0.383-0.205 0.060-0.23 0.053-1.843-0.616-1.655-0.686-1.607-0.669-1.803-0.581-0.095 0.045-1.956 2.359-1.993 2.479-0.020 0.073-0.020 0.12 0 0.193 0.020 0.063 0.381 0.558 1.007 1.382 0.846 1.117 0.979 1.305 1.004 1.412 0.035 0.163 0.035 0.163-0.29 0.939-0.288 0.694-0.353 0.791-0.548 0.861-0.058 0.020-0.811 0.165-1.68 0.32-1.653 0.295-1.66 0.298-1.77 0.448-0.13 0.175-0.453 3.175-0.348 3.238 0.015 0.010 0.734 0.275 1.595 0.591s1.602 0.596 1.645 0.621c0.165 0.095 0.203 0.203 0.353 1.034 0.078 0.423 0.14 0.821 0.14 0.889 0 0.078-0.023 0.163-0.058 0.228-0.038 0.073-0.418 0.443-1.232 1.199-0.648 0.601-1.199 1.129-1.227 1.169-0.033 0.053-0.048 0.118-0.045 0.203 0 0.115 0.063 0.243 0.639 1.362 0.353 0.679 0.671 1.267 0.709 1.307 0.035 0.038 0.113 0.083 0.17 0.098 0.098 0.028 0.218 0.005 1.67-0.323 1.638-0.371 1.695-0.378 1.878-0.293 0.098 0.048 1.262 1.249 1.332 1.375 0.095 0.175 0.090 0.225-0.165 1.222-0.588 2.296-0.576 2.246-0.543 2.354 0.015 0.055 0.055 0.128 0.085 0.163s0.606 0.373 1.28 0.751c1.109 0.623 1.237 0.689 1.34 0.689 0.068 0 0.148-0.020 0.19-0.045 0.043-0.028 0.576-0.556 1.189-1.179s1.154-1.154 1.207-1.179c0.183-0.098 0.233-0.093 1.149 0.113 0.473 0.105 0.889 0.208 0.921 0.23 0.173 0.113 0.183 0.135 0.716 1.738 0.503 1.51 0.518 1.55 0.613 1.635 0.055 0.050 0.138 0.095 0.193 0.105 0.228 0.043 1.648-0.048 2.554-0.163 0.411-0.053 0.498-0.095 0.568-0.283 0.023-0.060 0.188-0.806 0.366-1.658 0.215-1.017 0.343-1.577 0.373-1.628 0.098-0.155 0.17-0.193 0.934-0.483 0.824-0.316 0.929-0.338 1.112-0.24 0.045 0.025 0.621 0.478 1.277 1.009 0.659 0.531 1.229 0.984 1.272 1.009 0.055 0.033 0.113 0.043 0.208 0.035 0.128-0.008 0.155-0.028 0.874-0.571 1.46-1.104 1.598-1.212 1.645-1.279 0.028-0.035 0.055-0.12 0.060-0.188 0.013-0.11-0.038-0.255-0.568-1.648-0.32-0.841-0.588-1.567-0.593-1.615-0.025-0.173 0.033-0.28 0.433-0.831 0.215-0.293 0.416-0.561 0.446-0.591 0.088-0.098 0.238-0.163 0.378-0.16 0.068 0 0.816 0.075 1.66 0.168l1.532 0.165 0.108-0.048c0.058-0.028 0.125-0.070 0.15-0.098 0.035-0.040 0.911-2.389 1.057-2.832 0.055-0.163 0.020-0.3-0.108-0.431-0.050-0.053-0.671-0.521-1.38-1.042-1.272-0.934-1.287-0.946-1.35-1.084l-0.063-0.138 0.030-0.538c0.040-0.704 0.045-0.736 0.138-0.871 0.075-0.108 0.133-0.14 1.535-0.844 0.804-0.403 1.477-0.749 1.5-0.766 0.055-0.048 0.135-0.213 0.135-0.28 0-0.105-0.648-3.047-0.689-3.125-0.023-0.043-0.080-0.103-0.133-0.138-0.105-0.068 0.003-0.060-2.536-0.223-0.974-0.063-0.992-0.068-1.139-0.208-0.108-0.103-0.558-0.951-0.576-1.087-0.010-0.068 0-0.15 0.020-0.21 0.020-0.055 0.406-0.724 0.856-1.485 0.786-1.322 0.821-1.387 0.821-1.507-0.003-0.068-0.018-0.15-0.035-0.185-0.033-0.063-2.128-2.213-2.248-2.306-0.038-0.030-0.113-0.053-0.2-0.058l-0.143-0.010-1.412 0.784c-0.776 0.431-1.457 0.799-1.512 0.819-0.173 0.060-0.285 0.023-0.751-0.238-0.471-0.263-0.521-0.3-0.593-0.443-0.065-0.125-0.063-0.093-0.123-1.88-0.050-1.477-0.053-1.53-0.108-1.64-0.093-0.188 0.090-0.133-2.464-0.741-0.431-0.1-0.809-0.185-0.839-0.185-0.030 0.003-0.088 0.018-0.13 0.035zM17.152 6.67c0.689 0.090 1.259 0.218 1.853 0.416 3.152 1.042 5.566 3.756 6.22 6.991 0.143 0.709 0.175 1.049 0.175 1.873 0.003 0.776-0.010 0.966-0.113 1.59-0.481 2.927-2.391 5.501-5.068 6.823-1.014 0.501-1.89 0.764-3.117 0.931-0.383 0.053-1.78 0.043-2.203-0.013-2.188-0.298-4.096-1.249-5.584-2.787-2.126-2.198-3.035-5.228-2.479-8.263 0.366-1.996 1.45-3.901 2.995-5.266 1.525-1.345 3.385-2.143 5.431-2.329 0.378-0.035 1.522-0.015 1.89 0.033z"></path>
</symbol>
<symbol id="arrow-redo" viewBox="0 0 32 32">
<path d="M3.674 27.446c-0.396-0.139-0.674-0.51-0.674-0.945 0-0 0-0 0-0v0c0-4.569 0.917-8.223 2.728-10.861 2.188-3.188 5.638-4.904 10.272-5.117v-5.022c0-0.552 0.448-1 1-1 0.268 0 0.511 0.105 0.691 0.277l-0-0 11 10.5c0.191 0.182 0.309 0.439 0.309 0.723s-0.119 0.541-0.309 0.723l-0 0-11 10.5c-0.179 0.171-0.423 0.277-0.691 0.277-0.552 0-1-0.448-1-1v0-4.986c-2.813 0.085-4.938 0.541-6.629 1.415-1.828 0.945-3.154 2.357-4.582 4.188-0.185 0.235-0.469 0.384-0.788 0.384-0.117 0-0.229-0.020-0.333-0.057l0.007 0.002z"></path>
</symbol>
<symbol id="arrow-undo" viewBox="0 0 32 32">
<path d="M28 27.5c-0 0-0 0-0 0-0.319 0-0.603-0.149-0.786-0.382l-0.002-0.002c-1.429-1.829-2.754-3.241-4.582-4.188-1.692-0.873-3.817-1.329-6.629-1.414v4.986c-0.002 0.551-0.449 0.997-1 0.997-0.267 0-0.509-0.104-0.688-0.274l0 0-11-10.5c-0.191-0.182-0.309-0.439-0.309-0.723s0.119-0.541 0.309-0.723l0-0 11-10.5c0.179-0.17 0.421-0.274 0.688-0.274 0.551 0 0.998 0.446 1 0.997v5.023c4.634 0.213 8.086 1.932 10.272 5.117 1.811 2.638 2.728 6.292 2.728 10.861 0 0.552-0.448 1-1 1v0z"></path>
</symbol>
</defs>
</svg>
